# 3ds Max Wavefront OBJ Exporter v0.97b - (c)2007 guruware
# File Created: 11.08.2018 23:01:58

mtllib çiftyariktaban.mtl

#
# object Box001
#

v  -58.8655 -0.0000 78.3820
v  -58.8655 -0.0000 -61.5181
v  58.6332 -0.0000 -61.5181
v  58.6332 -0.0000 78.3820
v  -58.8655 3.2920 78.3820
v  58.6332 3.2920 78.3820
v  58.6332 3.2920 -61.5181
v  -58.8655 3.2920 -61.5181
# 8 vertices

vn -0.5774 -0.5774 0.5774
vn -0.5774 -0.5774 -0.5774
vn 0.5774 -0.5774 -0.5774
vn 0.5774 -0.5774 0.5774
vn -0.5774 0.5774 0.5774
vn 0.5774 0.5774 0.5774
vn 0.5774 0.5774 -0.5774
vn -0.5774 0.5774 -0.5774
# 8 vertex normals

vt 1.0000 0.0000 0.0000
vt 1.0000 1.0000 0.0000
vt 0.0000 1.0000 0.0000
vt 0.0000 0.0000 0.0000
# 4 texture coords

o Box001
g Box001
usemtl wire_166229229
s 2
f 1/1/1 2/2/2 3/3/3 4/4/4 
s 4
f 5/4/5 6/1/6 7/2/7 8/3/8 
s 8
f 1/4/1 4/1/4 6/2/6 5/3/5 
s 16
f 4/4/4 3/1/3 7/2/7 6/3/6 
s 32
f 3/4/3 2/1/2 8/2/8 7/3/7 
s 64
f 2/4/2 1/1/1 5/2/5 8/3/8 
# 6 polygons

#
# object Wall001
#

v  24.9882 0.0000 -25.9838
v  24.9882 26.4068 -25.9838
v  30.0000 26.4068 -25.9838
v  30.0000 0.0000 -25.9838
v  24.9882 26.4068 45.9838
v  30.0000 26.4068 45.9838
v  24.9882 0.0000 45.9838
v  30.0000 0.0000 45.9838
# 8 vertices

vn -0.5774 -0.5774 -0.5774
vn -0.5774 0.5774 -0.5774
vn 0.5774 0.5774 -0.5774
vn 0.5774 -0.5774 -0.5774
vn -0.5774 0.5774 0.5774
vn 0.5774 0.5774 0.5774
vn -0.5774 -0.5774 0.5774
vn 0.5774 -0.5774 0.5774
# 8 vertex normals

vt 1.0000 0.5000 1.0000
vt 1.0000 1.5000 1.0000
vt 0.0000 1.5000 1.0000
vt 0.0000 0.5000 1.0000
vt 0.0000 1.0000 1.5000
vt 0.0000 0.0000 1.5000
vt 1.0000 0.0000 1.5000
vt 1.0000 1.0000 1.5000
vt 0.0000 1.5000 0.0000
vt 0.0000 0.5000 0.0000
vt 1.0000 0.5000 0.0000
vt 1.0000 1.5000 0.0000
vt 1.0000 0.0000 0.5000
vt 1.0000 1.0000 0.5000
vt 0.0000 1.0000 0.5000
vt 0.0000 0.0000 0.5000
# 16 texture coords

o Wall001
g Wall001
usemtl wire_166229229
s 1
f 9/5/9 10/6/10 11/7/11 12/8/12 
s 2
f 10/9/10 13/10/13 14/11/14 11/12/11 
s 1
f 13/13/13 15/14/15 16/15/16 14/16/14 
s 2
f 15/17/15 9/18/9 12/19/12 16/20/16 
s 4
f 10/13/10 9/14/9 15/15/15 13/16/13 
f 11/6/11 14/7/14 16/8/16 12/5/12 
# 6 polygons

#
# object Wall002
#

v  -2.1456 25.0141 -20.0001
v  2.1457 25.0141 -20.0001
v  2.1457 0.0000 -20.0001
v  -2.1456 0.0000 -20.0001
v  2.1457 0.0000 39.9999
v  -2.1456 0.0000 39.9999
v  -2.1456 25.0141 39.9999
v  -2.1456 25.0141 23.1721
v  -2.1456 0.0002 23.1721
v  -2.1456 0.0001 3.1721
v  -2.1456 0.0002 16.8275
v  -2.1456 25.0141 16.8275
v  -2.1456 25.0141 3.1721
v  -2.1456 0.0001 -3.1725
v  -2.1456 25.0141 -3.1725
v  2.1457 25.0141 -3.1725
v  2.1457 0.0001 3.1721
v  2.1457 25.0141 3.1721
v  2.1457 25.0141 16.8275
v  2.1457 0.0002 16.8275
v  2.1457 0.0002 23.1721
v  2.1457 25.0141 23.1721
v  2.1457 25.0141 39.9999
v  2.1457 0.0001 -3.1725
# 24 vertices

vn -0.5774 0.5774 -0.5774
vn 0.5774 0.5774 -0.5774
vn 0.5774 -0.5773 -0.5773
vn -0.5774 -0.5773 -0.5773
vn 0.5774 -0.5773 0.5773
vn -0.5774 -0.5773 0.5773
vn -0.5774 0.5774 0.5774
vn -0.9045 0.3015 -0.3015
vn -0.9045 0.3015 0.3015
vn 0.5774 0.5774 0.5774
vn 0.9045 0.3015 -0.3015
vn 0.9045 0.3015 0.3015
# 12 vertex normals

vt 1.0000 1.5000 1.0000
vt 0.0000 1.5000 1.0000
vt 0.0000 0.5000 1.0000
vt 1.0000 0.5000 1.0000
vt 1.0000 1.0000 0.5000
vt 0.0000 1.0000 0.5000
vt 0.0000 0.0000 0.5000
vt 1.0000 0.0000 0.5000
vt 1.0000 0.5000 0.0000
vt 1.0000 1.5000 0.0000
vt 0.7195 1.5000 0.0000
vt 0.7195 0.5000 0.0000
vt 0.0000 0.5000 0.0000
vt 0.3862 0.5000 0.0000
vt 0.6138 0.5000 0.0000
vt 0.6138 1.5000 0.0000
vt 0.3862 1.5000 0.0000
vt 0.2805 0.5000 0.0000
vt 0.0000 1.5000 0.0000
vt 0.2805 1.5000 0.0000
vt 0.0000 0.7195 1.5000
vt 1.0000 0.7195 1.5000
vt 1.0000 1.0000 1.5000
vt 0.0000 1.0000 1.5000
vt 0.6138 0.5000 1.0000
vt 0.6138 1.5000 1.0000
vt 0.3862 1.5000 1.0000
vt 0.3862 0.5000 1.0000
vt 0.2805 0.5000 1.0000
vt 0.2805 1.5000 1.0000
vt 0.7195 0.5000 1.0000
vt 0.7195 1.5000 1.0000
vt 0.0000 0.0000 1.5000
vt 1.0000 0.0000 1.5000
vt 1.0000 0.2805 1.5000
vt 0.0000 0.2805 1.5000
vt 0.0304 0.4169 0.0000
vt 0.9695 0.4169 0.0000
vt 0.9695 0.0000 0.0000
vt 0.0304 0.0000 0.0000
vt 0.9696 0.0000 0.0000
vt 0.0305 0.0000 0.0000
vt 0.0305 1.0000 0.0000
vt 0.9696 1.0000 0.0000
vt 0.0305 0.4169 0.0000
vt 0.9696 0.4169 0.0000
vt 0.0000 0.3862 1.5000
vt 1.0000 0.3862 1.5000
vt 1.0000 0.6138 1.5000
vt 0.0000 0.6138 1.5000
# 50 texture coords

o Wall002
g Wall002
usemtl wire_166229229
s 1
f 17/21/17 18/22/18 19/23/19 20/24/20 
s 2
f 20/25/20 19/26/19 21/27/21 22/28/22 
s 4
f 22/29/22 23/30/23 24/31/17 25/32/24 
f 20/33/20 22/29/22 25/32/24 26/34/24 
f 27/35/25 28/36/23 29/37/17 26/34/24 
f 25/32/24 27/35/25 26/34/24 
f 20/33/20 26/34/24 30/38/26 17/39/17 
f 17/39/17 30/38/26 31/40/23 
s 2
f 31/41/23 32/42/26 18/43/18 17/44/17 
s 4
f 33/45/27 34/46/18 35/47/26 36/48/28 
f 33/45/27 36/48/28 37/49/27 21/23/21 
f 37/49/27 38/50/18 39/22/26 21/23/21 
f 40/51/28 33/45/27 21/23/21 19/24/19 
f 32/52/26 40/51/28 19/24/19 18/21/18 
s 1
f 22/33/22 21/29/21 39/30/26 23/39/23 
s 2
f 23/53/23 39/54/26 38/55/18 24/56/17 
s 8
f 24/57/17 38/58/18 37/59/27 25/60/24 
s 128
f 25/61/24 37/62/27 36/63/28 27/64/25 
s 32
f 35/65/26 28/66/23 27/61/25 36/62/28 
s 2
f 28/67/23 35/68/26 34/69/18 29/70/17 
s 256
f 26/61/24 33/62/27 40/63/28 30/64/26 
s 2048
f 32/65/26 31/66/23 30/61/26 40/62/28 
s 1024
f 29/57/17 34/58/18 33/59/27 26/60/24 
# 21 polygons - 2 triangles

#
# object Box004
#

v  -45.0000 0.0000 19.3523
v  -45.0000 0.0000 0.6477
v  -35.0000 0.0000 0.6477
v  -35.0000 0.0000 19.3523
v  -45.0000 10.0000 19.3523
v  -35.0000 10.0000 19.3523
v  -35.0000 10.0000 0.6477
v  -45.0000 10.0000 0.6477
# 8 vertices

vn -0.5774 -0.5774 0.5774
vn -0.5774 -0.5774 -0.5774
vn 0.5774 -0.5774 -0.5774
vn 0.5774 -0.5774 0.5774
vn -0.5774 0.5774 0.5774
vn 0.5774 0.5774 0.5774
vn 0.5774 0.5774 -0.5774
vn -0.5774 0.5774 -0.5774
# 8 vertex normals

vt 1.0000 0.0000 0.0000
vt 1.0000 1.0000 0.0000
vt 0.0000 1.0000 0.0000
vt 0.0000 0.0000 0.0000
# 4 texture coords

o Box004
g Box004
usemtl wire_135006006
s 2
f 41/71/29 42/72/30 43/73/31 44/74/32 
s 4
f 45/74/33 46/71/34 47/72/35 48/73/36 
s 8
f 41/74/29 44/71/32 46/72/34 45/73/33 
s 16
f 44/74/32 43/71/31 47/72/35 46/73/34 
s 32
f 43/74/31 42/71/30 48/72/36 47/73/35 
s 64
f 42/74/30 41/71/29 45/72/33 48/73/36 
# 6 polygons

