# 3ds Max Wavefront OBJ Exporter v0.97b - (c)2007 guruware
# File Created: 07.08.2018 18:54:38

mtllib tahta.mtl

#
# object Box005
#

v  -8.6579 16.2796 24.8107
v  -5.5319 16.2796 24.8107
v  -5.5319 16.2796 29.4162
v  -8.6579 16.2796 29.4162
v  -2.4059 16.2796 24.8107
v  -2.4059 16.2796 29.4162
v  0.7201 16.2796 24.8107
v  0.7201 16.2796 29.4162
v  -8.6579 16.2796 20.2051
v  -5.5319 16.2796 20.2051
v  -2.4059 16.2796 20.2051
v  0.7201 16.2796 20.2051
v  -8.6579 16.2796 15.5996
v  -5.5319 16.2796 15.5996
v  -2.4059 16.2796 15.5996
v  0.7201 16.2796 15.5996
v  -5.5319 18.5830 29.4162
v  -5.5319 18.5830 24.8107
v  -8.6579 18.5830 24.8107
v  -8.6579 18.5830 29.4162
v  -2.4059 18.5830 29.4162
v  -2.4059 18.5830 24.8107
v  0.7201 18.5830 29.4162
v  0.7201 18.5830 24.8107
v  -5.5319 18.5830 20.2051
v  -8.6579 18.5830 20.2051
v  -2.4059 18.5830 20.2051
v  0.7201 18.5830 20.2051
v  -5.5319 18.5830 15.5996
v  -8.6579 18.5830 15.5996
v  -2.4059 18.5830 15.5996
v  0.7201 18.5830 15.5996
v  -5.5319 17.4313 29.4162
v  -8.6579 17.4313 29.4162
v  -2.4059 17.4313 29.4162
v  0.7201 17.4313 29.4162
v  0.7201 17.4313 24.8107
v  0.7201 17.4313 20.2051
v  0.7201 17.4313 15.5996
v  -2.4059 17.4313 15.5996
v  -5.5319 17.4313 15.5996
v  -8.6579 17.4313 15.5996
v  -8.6579 17.4313 20.2051
v  -8.6579 17.4313 24.8107
v  -9.4465 15.0998 24.9277
v  -5.9425 15.0998 24.9277
v  -5.9425 15.0998 29.9281
v  -9.4465 15.0998 29.9281
v  -2.4385 15.0998 29.9281
v  -2.4385 15.0998 24.9277
v  1.0654 15.0998 29.9281
v  1.0654 15.0998 24.9277
v  -9.4465 15.0998 19.9272
v  -5.9425 15.0998 19.9272
v  -2.4385 15.0998 19.9272
v  1.0654 15.0998 19.9272
v  -9.4465 15.0998 14.9268
v  -5.9425 15.0998 14.9268
v  -2.4385 15.0998 14.9268
v  1.0654 15.0998 14.9268
v  -9.4465 16.1750 29.9281
v  -5.9425 16.1750 29.9281
v  -2.4385 16.1750 29.9281
v  1.0654 16.1750 29.9281
v  -9.4465 17.2503 29.9281
v  -5.9425 17.2503 29.9281
v  -5.9425 17.2503 24.9277
v  -9.4465 17.2503 24.9277
v  -2.4385 17.2503 29.9281
v  -2.4385 17.2503 24.9277
v  1.0654 17.2503 29.9281
v  1.0654 17.2503 24.9277
v  -9.4465 17.2503 19.9272
v  -5.9425 17.2503 19.9272
v  -2.4385 17.2503 19.9272
v  1.0654 17.2503 19.9272
v  -9.4465 17.2503 14.9268
v  -5.9425 17.2503 14.9268
v  -2.4385 17.2503 14.9268
v  1.0654 17.2503 14.9268
v  1.0654 16.1750 24.9277
v  1.0654 16.1750 19.9272
v  1.0654 16.1750 14.9268
v  -2.4385 16.1750 14.9268
v  -5.9425 16.1750 14.9268
v  -9.4465 16.1750 14.9268
v  -9.4465 16.1750 19.9272
v  -9.4465 16.1750 24.9277
# 88 vertices

vn -0.7071 -0.7071 -0.0000
vn 0.0000 -1.0000 -0.0000
vn 0.0000 -0.7071 0.7071
vn -0.5774 -0.5774 0.5774
vn 0.7071 -0.7071 -0.0000
vn 0.5774 -0.5774 0.5774
vn -0.5774 -0.5774 -0.5774
vn 0.0000 -0.7071 -0.7071
vn 0.5774 -0.5774 -0.5774
vn 0.0000 0.7071 0.7071
vn 0.0000 1.0000 -0.0000
vn -0.7071 0.7071 -0.0000
vn -0.5774 0.5774 0.5774
vn 0.5774 0.5774 0.5774
vn 0.7071 0.7071 -0.0000
vn 0.0000 0.7071 -0.7071
vn -0.5774 0.5774 -0.5774
vn 0.5774 0.5774 -0.5774
vn 0.0000 0.0000 1.0000
vn -0.7071 0.0000 0.7071
vn 0.7071 0.0000 0.7071
vn 1.0000 0.0000 -0.0000
vn 0.7071 0.0000 -0.7071
vn 0.0000 0.0000 -1.0000
vn -0.7071 0.0000 -0.7071
vn -1.0000 0.0000 -0.0000
# 26 vertex normals

vt 1.0000 0.3333 0.0000
vt 0.6667 0.3333 0.0000
vt 0.6667 0.0000 0.0000
vt 1.0000 0.0000 0.0000
vt 0.3333 0.3333 0.0000
vt 0.3333 0.0000 0.0000
vt -0.0000 0.3333 0.0000
vt -0.0000 0.0000 0.0000
vt 1.0000 0.6667 0.0000
vt 0.6667 0.6667 0.0000
vt 0.3333 0.6667 0.0000
vt -0.0000 0.6667 0.0000
vt 1.0000 1.0000 0.0000
vt 0.6667 1.0000 0.0000
vt 0.3333 1.0000 0.0000
vt -0.0000 1.0000 0.0000
vt 0.0000 0.3333 0.0000
vt 0.0000 0.0000 0.0000
vt 0.0000 0.6667 0.0000
vt 0.0000 1.0000 0.0000
vt 0.3333 0.5000 0.0000
vt 0.0000 0.5000 0.0000
vt 0.6667 0.5000 0.0000
vt 1.0000 0.5000 0.0000
vt 1.0000 -0.0000 0.0000
# 25 texture coords

o Box005
g Box005
usemtl wire_025033007
s 2
f 1/1/1 2/2/2 3/3/3 4/4/4 
f 2/2/2 5/5/2 6/6/3 3/3/3 
f 5/5/2 7/7/5 8/8/6 6/6/3 
f 9/9/1 10/10/2 2/2/2 1/1/1 
f 10/10/2 11/11/2 5/5/2 2/2/2 
f 11/11/2 12/12/5 7/7/5 5/5/2 
f 13/13/7 14/14/8 10/10/2 9/9/1 
f 14/14/8 15/15/8 11/11/2 10/10/2 
f 15/15/8 16/16/9 12/12/5 11/11/2 
s 4
f 17/6/10 18/5/11 19/17/12 20/18/13 
f 21/3/10 22/2/11 18/5/11 17/6/10 
f 23/4/14 24/1/15 22/2/11 21/3/10 
f 18/5/11 25/11/11 26/19/12 19/17/12 
f 22/2/11 27/10/11 25/11/11 18/5/11 
f 24/1/15 28/9/15 27/10/11 22/2/11 
f 25/11/11 29/15/16 30/20/17 26/19/12 
f 27/10/11 31/14/16 29/15/16 25/11/11 
f 28/9/15 32/13/18 31/14/16 27/10/11 
s 8
f 3/6/3 33/21/19 34/22/20 4/18/4 
f 6/3/3 35/23/19 33/21/19 3/6/3 
f 8/4/6 36/24/21 35/23/19 6/3/3 
f 33/21/19 17/15/10 20/20/13 34/22/20 
f 35/23/19 21/14/10 17/15/10 33/21/19 
f 36/24/21 23/13/14 21/14/10 35/23/19 
s 16
f 7/6/5 37/21/22 36/22/21 8/18/6 
f 12/3/5 38/23/22 37/21/22 7/6/5 
f 16/4/9 39/24/23 38/23/22 12/3/5 
f 37/21/22 24/15/15 23/20/14 36/22/21 
f 38/23/22 28/14/15 24/15/15 37/21/22 
f 39/24/23 32/13/18 28/14/15 38/23/22 
s 32
f 15/6/8 40/21/24 39/22/23 16/18/9 
f 14/3/8 41/23/24 40/21/24 15/6/8 
f 13/4/7 42/24/25 41/23/24 14/3/8 
f 40/21/24 31/15/16 32/20/18 39/22/23 
f 41/23/24 29/14/16 31/15/16 40/21/24 
f 42/24/25 30/13/17 29/14/16 41/23/24 
s 64
f 9/6/1 43/21/26 42/22/25 13/18/7 
f 1/3/1 44/23/26 43/21/26 9/6/1 
f 4/4/4 34/24/20 44/23/26 1/3/1 
f 43/21/26 26/15/12 30/20/17 42/22/25 
f 44/23/26 19/14/12 26/15/12 43/21/26 
f 34/24/20 20/13/13 19/14/12 44/23/26 
s 1
f 45/1/1 46/2/2 47/3/3 48/4/4 
f 49/6/3 47/3/3 46/2/2 50/5/2 
f 51/8/6 49/6/3 50/5/2 52/7/5 
f 46/2/2 45/1/1 53/9/1 54/10/2 
f 50/5/2 46/2/2 54/10/2 55/11/2 
f 52/7/5 50/5/2 55/11/2 56/12/5 
f 54/10/2 53/9/1 57/13/7 58/14/8 
f 55/11/2 54/10/2 58/14/8 59/15/8 
f 56/12/5 55/11/2 59/15/8 60/16/9 
s 2
f 61/22/20 48/18/4 47/6/3 62/21/19 
f 62/21/19 47/6/3 49/3/3 63/23/19 
f 63/23/19 49/3/3 51/4/6 64/24/21 
f 65/20/13 61/22/20 62/21/19 66/15/10 
s 1
f 66/6/10 67/5/11 68/17/12 65/18/13 
f 67/5/11 66/6/10 69/3/10 70/2/11 
f 70/2/11 69/3/10 71/4/14 72/1/15 
f 73/19/12 68/17/12 67/5/11 74/11/11 
f 74/11/11 67/5/11 70/2/11 75/10/11 
f 75/10/11 70/2/11 72/1/15 76/9/15 
f 77/20/17 73/19/12 74/11/11 78/15/16 
f 78/15/16 74/11/11 75/10/11 79/14/16 
f 79/14/16 75/10/11 76/9/15 80/13/18 
s 2
f 63/23/19 69/14/10 66/15/10 62/21/19 
f 64/24/21 71/13/14 69/14/10 63/23/19 
s 4
f 64/22/21 51/18/6 52/6/5 81/21/22 
f 81/21/22 52/6/5 56/3/5 82/23/22 
f 82/23/22 56/3/5 60/4/9 83/24/23 
f 81/21/22 72/15/15 71/20/14 64/22/21 
f 82/23/22 76/14/15 72/15/15 81/21/22 
f 83/24/23 80/13/18 76/14/15 82/23/22 
s 2
f 83/22/23 60/18/9 59/6/8 84/21/24 
f 84/21/24 59/6/8 58/3/8 85/23/24 
f 85/23/24 58/3/8 57/4/7 86/24/25 
f 84/21/24 79/15/16 80/20/18 83/22/23 
f 85/23/24 78/14/16 79/15/16 84/21/24 
f 86/24/25 77/13/17 78/14/16 85/23/24 
s 4
f 86/22/25 57/18/7 53/6/1 87/21/26 
f 87/21/26 53/6/1 45/3/1 88/23/26 
f 48/25/4 61/24/20 88/23/26 45/3/1 
f 87/21/26 73/15/12 77/20/17 86/22/25 
f 88/23/26 68/14/12 73/15/12 87/21/26 
f 61/24/20 65/13/13 68/14/12 88/23/26 
# 84 polygons

