# 3ds Max Wavefront OBJ Exporter v0.97b - (c)2007 guruware
# File Created: 07.08.2018 18:43:23

mtllib çift yarik.mtl

#
# object Box001
#

v  -35.6361 -0.3903 11.2825
v  -35.6361 -0.3903 1.0118
v  -33.1416 -0.3903 1.0118
v  -33.1416 -0.3903 10.3015
v  -29.1255 -0.3903 10.3015
v  -29.1255 -0.3903 1.0118
v  -28.0127 -0.3903 1.0118
v  -28.0127 -0.3903 11.2825
v  -30.4642 -0.3903 10.3015
v  -31.8029 -0.3903 10.3015
v  -28.0127 1.5578 11.2825
v  -35.6361 1.5578 11.2825
v  -35.6361 1.5578 1.0118
v  -35.6361 -0.3903 -9.2589
v  -33.1416 -0.3903 -9.2589
v  -33.1416 -0.3903 -8.5254
v  -33.1416 -0.3903 0.8880
v  -28.0127 -0.3903 -9.2589
v  -29.1255 -0.3903 0.8880
v  -29.1255 -0.3903 -8.5254
v  -29.1255 -0.3903 -9.2589
v  -24.1008 -0.3903 1.0118
v  -24.1008 -0.3903 10.3610
v  -22.1884 -0.3903 10.3610
v  -20.3892 -0.3903 10.3610
v  -20.3892 -0.3903 11.2825
v  -20.3892 1.5578 11.2825
v  -28.0127 3.5060 11.2825
v  -35.6361 3.5060 11.2825
v  -35.6361 1.5578 -9.2589
v  -35.6361 3.5060 1.0118
v  -28.0127 -0.3903 -19.5296
v  -29.1255 -0.3903 -17.9389
v  -35.6361 -0.3903 -19.5296
v  -30.4642 -0.3903 -17.9389
v  -31.8029 -0.3903 -17.9389
v  -33.1416 -0.3903 -17.9389
v  -24.1008 -0.3903 -9.2589
v  -24.1008 -0.3903 -8.4659
v  -24.1008 -0.3903 0.9475
v  -24.1008 3.5060 0.9475
v  -24.1008 3.5060 1.0118
v  -24.1008 3.5060 10.3610
v  -22.1884 3.5060 10.3610
v  -20.2760 -0.3903 10.3610
v  -20.3892 3.5060 10.3610
v  -20.2760 3.5060 10.3610
v  -18.3636 -0.3903 10.3610
v  -18.3636 -0.3903 1.0118
v  -12.7658 -0.3903 1.0118
v  -12.7658 -0.3903 11.2825
v  -12.7658 1.5578 11.2825
v  -20.3892 3.5060 11.2825
v  -28.0127 3.5060 1.0118
v  -29.1255 3.5060 1.0118
v  -29.1255 3.5060 10.3015
v  -30.4642 3.5060 10.3015
v  -31.8029 3.5060 10.3015
v  -33.1416 3.5060 10.3015
v  -33.1416 3.5060 1.0118
v  -35.6361 1.5578 -19.5296
v  -35.6361 3.5060 -9.2589
v  -28.0127 1.5578 -19.5296
v  -20.3892 -0.3903 -19.5296
v  -20.3892 -0.3903 -17.8794
v  -22.1884 -0.3903 -17.8794
v  -24.1008 -0.3903 -17.8794
v  -24.1008 3.5060 -17.8794
v  -24.1008 3.5060 -9.2589
v  -24.1008 3.5060 -8.4659
v  -28.0127 3.5060 -9.2589
v  -18.3636 3.5060 10.3610
v  -12.7658 3.5060 11.2825
v  -12.7658 3.5060 1.0118
v  -18.3636 3.5060 1.0118
v  -18.3636 -0.3903 0.9475
v  -18.3636 3.5060 0.9475
v  -12.7658 -0.3903 -9.2589
v  -18.3636 -0.3903 -8.4659
v  -18.3636 -0.3903 -9.2589
v  -12.7658 1.5578 1.0118
v  -29.1255 3.5060 -9.2589
v  -29.1255 3.5060 -8.5254
v  -29.1255 3.5060 0.8880
v  -33.1416 3.5060 0.8880
v  -33.1416 3.5060 -8.5254
v  -33.1416 3.5060 -9.2589
v  -35.6361 3.5060 -19.5296
v  -20.3892 1.5578 -19.5296
v  -28.0127 3.5060 -19.5296
v  -12.7658 -0.3903 -19.5296
v  -18.3636 -0.3903 -17.8794
v  -20.2760 -0.3903 -17.8794
v  -20.2760 3.5060 -17.8794
v  -20.3892 3.5060 -17.8794
v  -22.1884 3.5060 -17.8794
v  -20.3892 3.5060 -19.5296
v  -12.7658 3.5060 -9.2589
v  -18.3636 3.5060 -9.2589
v  -18.3636 3.5060 -8.4659
v  -18.3636 3.5060 -17.8794
v  -12.7658 1.5578 -9.2589
v  -29.1255 3.5060 -17.9389
v  -30.4642 3.5060 -17.9389
v  -31.8029 3.5060 -17.9389
v  -33.1416 3.5060 -17.9389
v  -12.7658 1.5578 -19.5296
v  -12.7658 3.5060 -19.5296
v  -33.1416 2.4354 10.3015
v  -31.8029 2.4354 10.3015
v  -30.4642 2.4354 10.3015
v  -33.1416 2.4354 0.8880
v  -29.1255 2.4354 10.3015
v  -33.1416 2.4354 -8.5254
v  -29.1255 2.4354 0.8880
v  -33.1416 2.4354 -17.9389
v  -29.1255 2.4354 -8.5254
v  -31.8029 2.4354 -17.9389
v  -29.1255 2.4354 -17.9389
v  -30.4642 2.4354 -17.9389
# 120 vertices

vn -0.5774 -0.5774 0.5774
vn -0.7071 -0.7071 -0.0000
vn 0.7071 -0.7071 -0.0000
vn 0.3015 -0.9045 -0.3015
vn -0.3015 -0.9045 -0.3015
vn 0.0000 -1.0000 -0.0000
vn 0.0000 -0.7071 0.7071
vn 0.0000 -0.7071 -0.7071
vn 0.0000 0.0000 1.0000
vn -0.7071 0.0000 0.7071
vn -1.0000 0.0000 -0.0000
vn 0.0000 0.7071 0.7071
vn -0.5774 0.5774 0.5774
vn -0.7071 0.7071 -0.0000
vn -0.3015 -0.9045 0.3015
vn -0.5774 -0.5774 -0.5774
vn 0.3015 -0.9045 0.3015
vn 0.7071 0.7071 -0.0000
vn 0.5774 -0.5774 -0.5774
vn 0.0000 0.7071 -0.7071
vn 0.5774 -0.5774 0.5774
vn 0.7071 0.0000 0.7071
vn 0.0000 1.0000 -0.0000
vn -0.3015 0.9045 -0.3015
vn 0.3015 0.9045 -0.3015
vn -0.7071 0.0000 -0.7071
vn 0.0000 0.0000 -1.0000
vn 0.5774 0.5774 0.5774
vn 1.0000 0.0000 -0.0000
vn -0.5774 0.5774 -0.5774
vn -0.3015 0.9045 0.3015
vn 0.3015 0.9045 0.3015
vn 0.7071 0.0000 -0.7071
vn 0.5774 0.5774 -0.5774
# 34 vertex normals

vt 1.0000 0.0000 0.0000
vt 1.0000 0.3333 0.0000
vt 0.8909 0.3333 0.0000
vt 0.8909 0.0318 0.0000
vt 0.7153 0.0318 0.0000
vt 0.7153 0.3333 0.0000
vt 0.6667 0.3333 0.0000
vt 0.6667 0.0000 0.0000
vt 0.7739 0.0318 0.0000
vt 0.8324 0.0318 0.0000
vt 0.3333 0.0000 0.0000
vt 0.3333 0.5000 0.0000
vt 0.0000 0.5000 0.0000
vt 0.0000 0.0000 0.0000
vt 1.0000 0.5000 0.0000
vt 0.6667 0.5000 0.0000
vt 1.0000 0.6667 0.0000
vt 0.8909 0.6667 0.0000
vt 0.8909 0.6429 0.0000
vt 0.8909 0.3373 0.0000
vt 0.6667 0.6667 0.0000
vt 0.7153 0.3373 0.0000
vt 0.7153 0.6429 0.0000
vt 0.7153 0.6667 0.0000
vt 0.4956 0.3333 0.0000
vt 0.4956 0.0299 0.0000
vt 0.4120 0.0299 0.0000
vt 0.3333 0.0299 0.0000
vt 0.3333 1.0000 0.0000
vt 0.0000 1.0000 0.0000
vt 1.0000 1.0000 0.0000
vt 0.6667 1.0000 0.0000
vt 0.7153 0.9484 0.0000
vt 0.7739 0.9484 0.0000
vt 0.8324 0.9484 0.0000
vt 0.8909 0.9484 0.0000
vt 0.4956 0.6667 0.0000
vt 0.4956 0.6409 0.0000
vt 0.4956 0.3354 0.0000
vt 0.6689 0.5983 0.0000
vt 0.6667 0.5983 0.0000
vt 0.6667 0.8522 0.0000
vt 1.0000 0.5983 0.0000
vt 0.6689 0.8522 0.0000
vt 1.0000 0.8522 0.0000
vt 0.0000 0.5983 0.0000
vt 0.0000 0.8522 0.0000
vt 0.3333 0.8522 0.0000
vt 0.3333 0.5983 0.0000
vt 0.6469 0.5983 0.0000
vt 0.6469 0.8522 0.0000
vt 0.2448 0.0299 0.0000
vt 0.2448 0.3333 0.0000
vt -0.0000 0.3333 0.0000
vt -0.0000 0.0000 0.0000
vt 0.3284 0.0299 0.0000
vt 0.3333 0.3333 0.0000
vt 0.2847 0.3333 0.0000
vt 0.2847 0.0318 0.0000
vt 0.2261 0.0318 0.0000
vt 0.1676 0.0318 0.0000
vt 0.1091 0.0318 0.0000
vt 0.1091 0.3333 0.0000
vt 0.0000 0.3333 0.0000
vt 0.3333 0.9464 0.0000
vt 0.4120 0.9464 0.0000
vt 0.4956 0.9464 0.0000
vt 0.3053 0.5983 0.0000
vt 0.3053 0.8522 0.0000
vt 0.5044 0.3333 0.0000
vt 0.5044 0.3354 0.0000
vt 0.5044 0.6409 0.0000
vt 0.5044 0.6667 0.0000
vt 0.3333 0.6667 0.0000
vt 0.6667 0.0299 0.0000
vt 0.5880 0.0299 0.0000
vt 0.5044 0.0299 0.0000
vt 0.7552 0.3333 0.0000
vt 0.7552 0.0299 0.0000
vt 0.6716 0.0299 0.0000
vt 0.3311 0.5983 0.0000
vt 0.3311 0.8522 0.0000
vt -0.0000 0.6667 0.0000
vt 0.2448 0.3354 0.0000
vt 0.2448 0.6409 0.0000
vt 0.2448 0.6667 0.0000
vt 0.2847 0.6667 0.0000
vt 0.2847 0.6429 0.0000
vt 0.2847 0.3373 0.0000
vt 0.1091 0.3373 0.0000
vt 0.1091 0.6429 0.0000
vt 0.1091 0.6667 0.0000
vt 0.0000 0.6667 0.0000
vt -0.0000 1.0000 0.0000
vt 0.2448 0.9464 0.0000
vt 0.3284 0.9464 0.0000
vt 0.3531 0.5983 0.0000
vt 0.3531 0.8522 0.0000
vt 0.5880 0.9464 0.0000
vt 0.6667 0.9464 0.0000
vt 0.5044 0.9464 0.0000
vt 0.7552 0.6667 0.0000
vt 0.7552 0.6409 0.0000
vt 0.7552 0.3354 0.0000
vt 0.6947 0.5983 0.0000
vt 0.6947 0.8522 0.0000
vt 0.2847 0.9484 0.0000
vt 0.2261 0.9484 0.0000
vt 0.1676 0.9484 0.0000
vt 0.1091 0.9484 0.0000
vt 0.6716 0.9464 0.0000
vt 0.7552 0.9464 0.0000
vt 0.0000 0.3171 0.0000
vt 0.3333 0.3171 0.0000
vt 0.6667 0.3171 0.0000
vt 0.3333 0.5693 0.0000
vt 0.0000 0.5693 0.0000
vt 0.6710 0.3171 0.0000
vt 1.0000 0.3171 0.0000
vt 0.6667 0.5693 0.0000
vt 0.6710 0.5693 0.0000
vt 1.0000 0.5693 0.0000
vt 0.3290 0.3171 0.0000
vt 0.3074 0.3171 0.0000
vt 0.3290 0.5693 0.0000
vt 0.3074 0.5693 0.0000
vt 0.6926 0.3171 0.0000
vt 0.6926 0.5693 0.0000
vt -0.0000 0.5693 0.0000
# 129 texture coords

o Box001
g Box001
usemtl wire_088088225
s 2
f 1/1/1 2/2/2 3/3/3 4/4/4 
f 5/5/5 6/6/2 7/7/6 8/8/7 
f 9/9/8 5/5/5 8/8/7 10/10/8 
f 4/4/4 10/10/8 8/8/7 1/1/1 
s 8
f 8/11/7 11/12/9 12/13/10 1/14/1 
s 64
f 1/1/1 12/15/10 13/16/11 2/8/2 
s 2
f 2/2/2 14/17/2 15/18/3 16/19/3 
f 2/2/2 16/19/3 17/20/3 3/3/3 
f 18/21/6 7/7/6 6/6/2 19/22/2 
f 18/21/6 19/22/2 20/23/2 21/24/2 
f 8/8/7 7/7/6 22/25/3 23/26/4 
f 8/8/7 23/26/4 24/27/8 25/28/8 
f 8/8/7 25/28/8 26/11/7 
s 8
f 26/8/7 27/16/9 11/12/9 8/11/7 
f 11/12/9 28/29/12 29/30/13 12/13/10 
s 64
f 2/8/2 13/16/11 30/12/11 14/11/2 
f 12/15/10 29/31/13 31/32/14 13/16/11 
s 2
f 32/32/8 18/21/6 21/24/2 33/33/15 
f 34/31/16 32/32/8 33/33/15 35/34/7 
f 34/31/16 35/34/7 36/35/7 37/36/17 
f 14/17/2 34/31/16 37/36/17 15/18/3 
f 7/7/6 18/21/6 38/37/3 39/38/3 
f 7/7/6 39/38/3 40/39/3 22/25/3 
s 2048
f 22/40/3 40/41/3 41/42/18 23/43/4 
f 23/43/4 41/42/18 42/44/18 43/45/19 
s 256
f 23/46/4 43/47/19 44/48/20 24/49/8 
f 25/50/8 24/49/8 44/48/20 45/41/8 
f 45/41/8 44/48/20 46/51/20 47/42/20 
s 2
f 48/52/5 49/53/2 50/54/3 51/55/21 
f 45/56/8 48/52/5 51/55/21 25/28/8 
f 26/11/7 25/28/8 51/55/21 
s 8
f 51/1/21 52/15/22 27/16/9 26/8/7 
f 27/16/9 53/32/12 28/29/12 11/12/9 
s 4
f 28/11/12 54/57/23 55/58/14 56/59/24 
f 29/14/13 28/11/12 56/59/24 57/60/20 
f 29/14/13 57/60/20 58/61/20 59/62/25 
f 29/14/13 59/62/25 60/63/18 31/64/14 
s 64
f 14/11/2 30/12/11 61/13/26 34/14/16 
f 13/16/11 31/32/14 62/29/14 30/12/11 
s 32
f 34/1/16 61/15/26 63/16/27 32/8/8 
s 2
f 32/32/8 64/29/8 65/65/7 66/66/7 
f 32/32/8 66/66/7 67/67/28 18/21/6 
f 18/21/6 67/67/28 38/37/3 
s 2048
f 38/68/3 67/46/28 68/47/21 39/49/3 
f 39/49/3 68/47/21 69/69/18 70/48/18 
f 39/49/3 70/48/18 41/42/18 40/41/3 
s 4
f 54/57/23 42/70/18 41/71/18 70/72/18 
f 54/57/23 70/72/18 69/73/18 71/74/23 
f 28/11/12 53/8/12 46/75/20 44/76/20 
f 28/11/12 44/76/20 43/77/19 42/70/18 
f 28/11/12 42/70/18 54/57/23 
s 256
f 45/41/8 47/42/20 72/45/24 48/43/5 
s 4
f 73/1/28 74/2/18 75/78/14 72/79/24 
f 53/8/12 73/1/28 72/79/24 47/80/20 
f 53/8/12 47/80/20 46/75/20 
s 512
f 49/81/2 48/46/5 72/47/24 76/49/2 
f 76/49/2 72/47/24 75/82/14 77/48/14 
s 2
f 78/83/3 50/54/3 49/53/2 76/84/2 
f 78/83/3 76/84/2 79/85/2 80/86/2 
s 16
f 50/11/3 81/12/29 52/13/22 51/14/21 
s 8
f 52/15/22 73/31/28 53/32/12 27/16/9 
s 4
f 54/57/23 71/74/23 82/87/14 83/88/14 
f 54/57/23 83/88/14 84/89/14 55/58/14 
f 31/64/14 60/63/18 85/90/18 86/91/18 
f 31/64/14 86/91/18 87/92/18 62/93/14 
s 64
f 30/12/11 62/29/14 88/30/30 61/13/26 
s 32
f 32/8/8 63/16/27 89/12/27 64/11/8 
f 61/15/26 88/31/30 90/32/20 63/16/27 
s 2
f 91/94/19 78/83/3 80/86/2 92/95/15 
f 64/29/8 91/94/19 92/95/15 93/96/7 
f 65/65/7 64/29/8 93/96/7 
s 1024
f 65/97/7 93/49/7 94/48/12 66/41/7 
f 66/41/7 94/48/12 95/98/12 96/42/12 
f 66/41/7 96/42/12 68/45/21 67/43/28 
s 4
f 96/99/12 95/100/12 97/32/20 68/101/21 
f 68/101/21 97/32/20 90/29/20 69/73/18 
f 71/74/23 69/73/18 90/29/20 
s 16
f 81/12/29 74/29/18 73/30/28 52/13/22 
s 4
f 74/2/18 98/17/18 99/102/14 100/103/14 
f 74/2/18 100/103/14 77/104/14 75/78/14 
s 512
f 76/49/2 77/48/14 100/42/14 79/41/2 
f 80/105/2 79/41/2 100/42/14 92/43/15 
f 92/43/15 100/42/14 99/106/14 101/45/1 
s 16
f 78/8/3 102/16/29 81/12/29 50/11/3 
s 4
f 103/107/31 82/87/14 71/74/23 90/29/20 
f 104/108/12 103/107/31 90/29/20 105/109/12 
f 106/110/32 105/109/12 90/29/20 88/30/30 
f 87/92/18 106/110/32 88/30/30 62/93/14 
s 32
f 64/11/8 89/12/27 107/13/33 91/14/19 
f 63/16/27 90/32/20 97/29/20 89/12/27 
s 16
f 91/1/19 107/15/33 102/16/29 78/8/3 
s 1024
f 92/46/15 101/47/1 94/48/12 93/49/7 
s 4
f 108/31/34 97/32/20 95/100/12 94/111/12 
f 108/31/34 94/111/12 101/112/1 98/17/18 
f 99/102/14 98/17/18 101/112/1 
s 16
f 102/16/29 98/32/18 74/29/18 81/12/29 
s 32
f 89/12/27 97/29/20 108/30/34 107/13/33 
s 16
f 107/15/33 108/31/34 98/32/18 102/16/29 
s 4096
f 4/113/4 109/13/33 110/12/27 10/114/8 
f 10/114/8 110/12/27 111/16/27 9/115/8 
f 58/116/20 110/12/27 109/13/33 59/117/25 
s 32768
f 3/118/3 17/115/3 112/16/29 4/119/4 
f 4/119/4 112/16/29 109/15/33 
s 4096
f 9/115/8 111/16/27 113/15/26 5/119/5 
f 57/120/20 111/16/27 110/12/27 58/116/20 
s 32768
f 112/16/29 85/120/18 60/121/18 59/122/25 
f 112/16/29 59/122/25 109/15/33 
f 16/114/3 114/12/29 112/16/29 17/115/3 
s 8192
f 6/123/2 5/113/5 113/13/26 19/114/2 
f 19/114/2 113/13/26 115/12/11 
s 4096
f 56/122/24 113/15/26 111/16/27 57/120/20 
s 32768
f 85/120/18 112/16/29 114/12/29 86/116/18 
f 15/124/3 37/113/17 116/13/22 16/114/3 
f 16/114/3 116/13/22 114/12/29 
s 8192
f 19/114/2 115/12/11 117/16/11 20/115/2 
f 113/13/26 56/117/24 55/125/14 84/116/14 
f 113/13/26 84/116/14 115/12/11 
s 32768
f 116/13/22 106/117/32 87/126/18 86/116/18 
f 116/13/22 86/116/18 114/12/29 
s 16384
f 36/115/7 118/16/9 116/15/22 37/119/17 
s 8192
f 21/127/2 20/115/2 117/16/11 33/119/15 
f 33/119/15 117/16/11 119/15/10 
f 83/120/14 117/16/11 115/12/11 84/116/14 
s 16384
f 106/122/32 116/15/22 118/16/9 105/120/12 
f 35/114/7 120/12/9 118/16/9 36/115/7 
f 33/113/15 119/13/10 120/12/9 35/114/7 
s 8192
f 117/16/11 83/120/14 82/128/14 103/122/31 
f 117/16/11 103/122/31 119/15/10 
s 16384
f 105/120/12 118/16/9 120/12/9 104/116/12 
f 104/116/12 120/12/9 119/13/10 103/129/31 
# 114 polygons - 16 triangles

